<svg id="visual" viewBox="0 0 900 600" width="900" height="600" xmlns="http://www.w3.org/2000/svg"
     xmlns:xlink="http://www.w3.org/1999/xlink" version="1.1">
    <rect x="0" y="0" width="900" height="600" fill="#002233"></rect>
    <path d="M0 432L21.5 442.8C43 453.7 86 475.3 128.8 472.8C171.7 470.3 214.3 443.7 257.2 433.8C300 424 343 431 385.8 426.8C428.7 422.7 471.3 407.3 514.2 404.2C557 401 600 410 642.8 425.2C685.7 440.3 728.3 461.7 771.2 457.2C814 452.7 857 422.3 878.5 407.2L900 392L900 601L878.5 601C857 601 814 601 771.2 601C728.3 601 685.7 601 642.8 601C600 601 557 601 514.2 601C471.3 601 428.7 601 385.8 601C343 601 300 601 257.2 601C214.3 601 171.7 601 128.8 601C86 601 43 601 21.5 601L0 601Z"
          fill="#0066FF" stroke-linecap="round" stroke-linejoin="miter"></path>
</svg>