<svg id="visual" viewBox="0 0 4000 600" width="4000" height="600" xmlns="http://www.w3.org/2000/svg"
     xmlns:xlink="http://www.w3.org/1999/xlink" version="1.1">
    <path d="M0 457L55.5 463.8C111 470.7 222 484.3 333.2 494.3C444.3 504.3 555.7 510.7 666.8 498.7C778 486.7 889 456.3 1000 442.7C1111 429 1222 432 1333.2 447.2C1444.3 462.3 1555.7 489.7 1666.8 490.7C1778 491.7 1889 466.3 2000 442.7C2111 419 2222 397 2333.2 402.5C2444.3 408 2555.7 441 2666.8 445.3C2778 449.7 2889 425.3 3000 428.5C3111 431.7 3222 462.3 3333.2 463.2C3444.3 464 3555.7 435 3666.8 433C3778 431 3889 456 3944.5 468.5L4000 481L4000 601L3944.5 601C3889 601 3778 601 3666.8 601C3555.7 601 3444.3 601 3333.2 601C3222 601 3111 601 3000 601C2889 601 2778 601 2666.8 601C2555.7 601 2444.3 601 2333.2 601C2222 601 2111 601 2000 601C1889 601 1778 601 1666.8 601C1555.7 601 1444.3 601 1333.2 601C1222 601 1111 601 1000 601C889 601 778 601 666.8 601C555.7 601 444.3 601 333.2 601C222 601 111 601 55.5 601L0 601Z"
          fill="#0066FF" stroke-linecap="round" stroke-linejoin="miter"></path>
</svg>